# xmcd
#
# Track frame offsets: 
#        150
#        12411
#        28053
#        50341
#        71890
#        96064
#        108007
#        115409
#        136161
#        153591
#        167999
#        192507
#
# Disc length: 2855 seconds
#
# Revision: 2
# Processed by: cddbd v1.5.2PL0 Copyright (c) Steve Scherf et al.
# Submitted via: ExactAudioCopy v1.0b3
#
DISCID=a40b250c
DTITLE=Moonband - Atlantis
DYEAR=2014
DGENRE=Country
TTITLE0=No Bargain
TTITLE1=Set The Fire
TTITLE2=The Ivy In Your Garden
TTITLE3=Foghorn
TTITLE4=Joe Stack
TTITLE5=Marta Says
TTITLE6=Oh Brother
TTITLE7=Coral Strand Lane
TTITLE8=Heaven and Hell
TTITLE9=A Sparrow's Wings
TTITLE10=10000 Voices
TTITLE11=Atlantis
EXTD=
EXTT0=
EXTT1=
EXTT2=
EXTT3=
EXTT4=
EXTT5=
EXTT6=
EXTT7=
EXTT8=
EXTT9=
EXTT10=
EXTT11=
PLAYORDER=
